PathFileType	4	(X/Y/Z)	C:\Users\Biomechanik\SynologyDrive\AlexP\Athlete_03\Athlete_3_25_03_31\Walking_07\marker_experimental.trc
DataRate	CameraRate	NumFrames	NumMarkers	Units	OrigDataRate	OrigDataStartFrame	OrigNumFrames
200.000000	200.000000	4	53	mm	200.000000	225	450
Frame#	Time	GLAB			RFHD			LFHD			C7			T6			SPINMOL			SPINM2			SPINM3			T12			BELTOL			BELT2			BELT3			SACROL			SACR2			SACR3			LTHOL			LTH2			LTH3			LSHAOL			LSHA2			LSHA3			LHEE			LTOE			LM5			RTHOL			RTH2			RTH3			RSHAOL			RSHA2			RSHA3			RHEE			RTOE			RM5			STRN			XIPH			LACR			LUAOL			LUA2			LUA3			LLAOL			LLA2			LLA3			LWRR			LWRU			RACR			RUAOL			RUA2			RUA3			RLAOL			RLA2			RLA3			RWRR			RWRU			
		X1	Y1	Z1	X2	Y2	Z2	X3	Y3	Z3	X4	Y4	Z4	X5	Y5	Z5	X6	Y6	Z6	X7	Y7	Z7	X8	Y8	Z8	X9	Y9	Z9	X10	Y10	Z10	X11	Y11	Z11	X12	Y12	Z12	X13	Y13	Z13	X14	Y14	Z14	X15	Y15	Z15	X16	Y16	Z16	X17	Y17	Z17	X18	Y18	Z18	X19	Y19	Z19	X20	Y20	Z20	X21	Y21	Z21	X22	Y22	Z22	X23	Y23	Z23	X24	Y24	Z24	X25	Y25	Z25	X26	Y26	Z26	X27	Y27	Z27	X28	Y28	Z28	X29	Y29	Z29	X30	Y30	Z30	X31	Y31	Z31	X32	Y32	Z32	X33	Y33	Z33	X34	Y34	Z34	X35	Y35	Z35	X36	Y36	Z36	X37	Y37	Z37	X38	Y38	Z38	X39	Y39	Z39	X40	Y40	Z40	X41	Y41	Z41	X42	Y42	Z42	X43	Y43	Z43	X44	Y44	Z44	X45	Y45	Z45	X46	Y46	Z46	X47	Y47	Z47	X48	Y48	Z48	X49	Y49	Z49	X50	Y50	Z50	X51	Y51	Z51	X52	Y52	Z52	X53	Y53	Z53	

226	1.125	1125.890258789062	1564.2509765625	235.6443939208986	1074.99755859375	1587.644897460938	301.0784301757814	1083.25830078125	1589.857177734375	162.6525726318361	900.8601074218749	1404.920166015625	218.4684448242189	844.4087524414061	1235.053466796875	214.3809356689455	835.5758056640624	1194.371215820312	193.3479919433595	832.3803100585936	1186.903442382812	243.1444091796876	842.3533325195311	1130.293090820312	208.9695129394533	868.8193969726561	1064.4267578125	210.7468566894533	835.4528198242186	1029.488891601562	201.8610076904298	841.0254516601561	1025.719604492188	251.658905029297	834.1795043945311	966.6096801757812	221.4147338867189	844.991455078125	927.3727416992188	204.6325683593751	858.6744384765625	920.908447265625	253.3769531250002	833.5986938476562	865.8248901367188	226.8350524902345	845.5177001953125	673.6713256835938	27.54999732971207	791.3718872070312	635.6018676757812	71.8860015869142	829.1535034179688	617.2766723632812	45.08528137207046	697.4049682617188	358.8523864746094	47.61376953125013	624.9705810546875	331.6085815429688	66.73855590820324	667.8907470703125	305.5460205078126	60.64306640625012	518.950439453125	181.5593872070313	163.3067321777345	669.0574951171875	38.30583953857426	168.029754638672	627.2294921875	36.02267074584964	65.05480194091808	1043.612670898438	645.3640136718751	383.7034912109377	1119.247192382812	619.6321411132814	384.7821350097659	1077.70361328125	596.0718383789064	371.027313232422	1154.488159179688	318.4207458496094	360.0440979003909	1208.664916992188	261.7427673339844	359.6212463378909	1161.343383789062	258.7626037597657	345.0979614257815	1198.718383789062	48.09522628784187	241.9646759033205	1403.693359375	85.68771362304696	245.5478515625003	1365.570556640625	51.08595275878915	344.2877502441409	1074.057495117188	1304.10009765625	218.7897338867189	1088.89892578125	1161.291625976562	208.933059692383	984.3840332031249	1375.016967773438	46.9254570007326	1010.496276855469	1235.487060546875	-61.77701187133771	1011.905334472656	1174.38818359375	-86.23181152343732	1055.376708984375	1187.277099609375	-61.61060333251934	1140.842163085938	1011.350463867188	-114.1572570800779	1155.188354492188	934.9633178710939	-97.73563385009744	1187.944702148438	972.7418212890626	-103.7270584106443	1272.804443359375	915.4645385742189	-86.06034088134743	1286.402099609375	950.7673950195314	-15.22129440307594	980.947570800781	1355.640502929688	388.5671386718752	938.094299316406	1210.035400390625	483.0628356933595	952.4995117187498	1146.2529296875	494.6280212402345	902.3911132812498	1157.041625976562	499.603485107422	899.3258056640623	939.3286743164062	540.0772705078126	939.8806152343749	882.3420410156251	579.0054931640627	904.2936401367186	875.7493896484375	547.3874511718751	925.4337158203124	792.0297241210938	571.8543090820314	975.2991333007811	768.1141357421876	510.8621826171877	
227	1.13	1133.377319335938	1564.57470703125	236.5884094238283	1082.582153320312	1587.995727539062	302.0884094238283	1090.64404296875	1590.170166015625	163.6577758789064	908.3932495117186	1405.079223632812	219.6936645507814	852.2434082031249	1235.072021484375	215.2414550781252	843.4288330078124	1194.434936523438	194.1183013916017	840.2593383789061	1186.871459960938	243.9065856933595	850.3679199218749	1130.3232421875	209.6161346435548	876.8462524414061	1064.54150390625	211.1747131347658	843.9508666992186	1029.651123046875	202.058547973633	849.4096679687499	1025.954833984375	251.8728332519533	842.7326660156249	966.7970581054688	221.6981353759767	853.1192016601562	927.0762939453125	204.7990875244142	866.6565551757812	920.9689331054688	253.6388549804689	842.3538818359375	865.5067138671875	227.239471435547	854.6987915039062	673.0647583007812	27.80870246887223	801.0989990234375	634.5780639648438	72.36935424804702	838.6890869140625	616.53857421875	45.13914108276383	705.7722778320312	360.3209228515626	46.88861846923841	633.130859375	334.1903991699219	66.68432617187511	675.527587890625	307.4893798828126	60.04083633422864	526.1893310546875	186.8094787597657	163.124237060547	669.6468505859375	38.50159835815434	168.2839508056642	628.2006225585938	36.99602127075199	65.29384613037121	1051.19384765625	646.3188476562501	384.2478942871095	1126.856567382812	620.5610351562501	385.2332763671877	1085.203125	597.0067749023439	371.6669616699221	1161.013671875	319.3447570800782	361.0932312011721	1214.416870117188	262.0216674804688	360.1804504394534	1167.0205078125	259.5565185546876	346.1436157226565	1199.758056640625	48.93220138549812	242.141052246094	1405.928955078125	81.46491241455087	244.9665222167971	1366.860473632812	48.47398376464852	343.9765930175784	1081.749633789062	1304.631469726562	219.8518371582033	1096.980834960938	1161.916137695312	209.9250640869143	991.9213256835936	1375.361206054688	48.00012207031268	1017.831115722656	1235.792602539062	-60.77803802490216	1019.056823730469	1174.788452148438	-85.50564575195294	1062.491577148438	1187.373779296875	-60.65392303466778	1146.85205078125	1010.972900390625	-113.7025604248045	1160.78857421875	934.4778442382814	-97.49968719482401	1193.751708984375	972.0755004882814	-103.4526214599607	1278.331787109375	914.2835083007814	-86.13211059570288	1292.208862304688	949.2830810546876	-15.19345951080298	988.6363525390623	1355.604248046875	389.7114868164064	946.2344970703123	1209.650512695312	483.9281616210939	960.7687988281248	1145.861328125	495.3099365234377	910.6593627929685	1156.563354492188	500.4464111328127	907.669006347656	938.8778076171875	540.3784179687501	948.0917358398436	881.7504882812501	579.2595214843752	912.5147705078124	875.2808837890625	547.6241455078126	933.4645385742186	791.4902343750001	572.0229492187502	983.2512207031249	767.5336914062501	510.9693908691408	
228	1.135	1140.859008789062	1564.9697265625	237.5138244628908	1090.1669921875	1588.426635742188	303.0813903808596	1098.02490234375	1590.55615234375	164.6452636718752	915.9073486328124	1405.318115234375	220.9024353027345	860.0607299804686	1235.16455078125	216.0716094970705	851.2534179687499	1194.58642578125	194.8571166992189	848.1336059570311	1186.9150390625	244.6360015869142	858.3580322265624	1130.4345703125	210.2209777832033	884.8370361328124	1064.753173828125	211.5623779296877	852.4093627929686	1029.97802734375	202.1922760009767	857.7446289062499	1026.357543945312	252.0258178710939	851.2142944335936	967.1524047851562	221.9275054931642	861.2164916992188	926.8675537109375	204.914260864258	874.5673828125	921.1378173828125	253.8616943359377	851.0713500976562	865.2874145507812	227.6094512939455	864.0509643554688	672.3988647460938	28.05472564697282	811.0487060546875	633.41748046875	72.81490325927749	848.4483642578125	615.7207641601562	45.13160324096695	714.5365600585938	361.8046875000001	46.10565567016614	641.73193359375	336.8047790527344	66.64163970947277	683.5692749023438	309.4679870605469	59.39038085937513	533.9928588867188	192.2125701904297	162.957733154297	670.4379272460938	38.84364700317387	168.5243530273439	629.264404296875	38.21719741821293	65.58774566650402	1058.682861328125	647.3148803710939	384.8455200195314	1134.362182617188	621.5247192382814	385.7672119140627	1092.619995117188	597.9763793945314	372.3652343750002	1167.477783203125	320.2891845703126	362.2165222167971	1220.101318359375	262.3355102539063	360.6834716796877	1172.607055664062	260.3863220214844	347.2636413574221	1200.730712890625	49.79470062255866	242.3123474121096	1408.005859375	77.49985504150399	244.4187469482424	1367.980346679688	46.19143676757821	343.7330017089846	1089.415283203125	1305.274047851562	220.907913208008	1105.04638671875	1162.644409179688	210.9249572753908	999.4184570312499	1375.796997070312	49.053421020508	1025.078369140625	1236.154296875	-59.78747177124004	1026.114013671875	1175.235229492188	-84.75399017333966	1069.529296875	1187.538452148438	-59.71352767944316	1152.72998046875	1010.60888671875	-113.2412948608396	1166.209716796875	934.0016479492189	-97.25970458984354	1199.400756835938	971.3935546875001	-103.1901016235349	1283.664794921875	913.0300292968751	-86.25384521484351	1297.87255859375	947.7144775390626	-15.2265586853025	996.2966308593748	1355.679809570312	390.838104248047	954.3973388671873	1209.375732421875	484.787811279297	969.0799560546873	1145.582641601562	495.9808349609377	918.9707031249998	1156.187133789062	501.2990722656252	916.117248535156	938.5327758789062	540.6788330078126	956.4400024414061	881.2727661132814	579.4920654296877	920.8521728515624	874.919677734375	547.8635253906251	941.6341552734374	791.0582275390626	572.185974121094	991.3120117187499	767.0697631835939	511.0462341308595	
229	1.14	1148.332397460938	1565.429321289062	238.4202728271486	1097.747436523438	1588.928955078125	304.0565490722659	1105.39892578125	1591.009887695312	165.6142578125002	923.3970947265624	1405.631103515625	222.0880584716799	867.8535156249999	1235.329467773438	216.8685760498049	859.0416259765624	1194.8232421875	195.5622558593752	855.9934082031249	1187.033325195312	245.3303833007814	866.3146972656249	1130.624877929688	210.7838745117189	892.7861328124999	1065.057006835938	211.9158477783205	860.8087768554686	1030.460205078125	202.2675781250002	866.0099487304686	1026.919311523438	252.1225433349611	859.6049194335936	967.666015625	222.107864379883	869.2747192382812	926.7412719726562	204.9854278564455	882.401123046875	921.40380859375	254.0510253906252	859.7333984375	865.161865234375	227.9476928710939	873.568359375	671.6681518554688	28.28356170654313	821.2122192382812	632.11376953125	73.21237945556656	858.4240112304688	614.8187866210938	45.05427932739273	723.7034301757812	363.2969970703126	45.26216125488295	650.7786254882812	339.4449157714844	66.60184478759777	692.0204467773438	311.4754638671876	58.689910888672	542.3568725585938	197.7622528076172	162.8048706054689	671.4697875976562	39.35377120971684	168.7408905029298	630.445556640625	39.72763442993168	65.93724822998058	1066.113525390625	648.3376464843751	385.5086975097658	1141.798217773438	622.5075073242189	386.3638000488284	1099.982055664062	598.9655151367189	373.123474121094	1173.849853515625	321.2171020507813	363.3678894042971	1225.6923828125	262.6485290527344	361.0697021484377	1178.070922851562	261.2160949707032	348.4077148437502	1201.639404296875	50.6579780578614	242.4621429443362	1409.9248046875	73.80464935302743	243.8832702636721	1368.942993164062	44.24772644042977	343.5377197265627	1097.05126953125	1306.01708984375	221.9527435302736	1113.087890625	1163.464599609375	211.9253234863283	1006.873046875	1376.32080078125	50.08336257934589	1032.235717773438	1236.570678710938	-58.80955123901348	1033.070068359375	1175.72314453125	-83.97109222412091	1076.486938476562	1187.769653320312	-58.79167938232402	1158.476318359375	1010.25927734375	-112.7730941772459	1171.452270507812	933.5366210937501	-97.01342773437479	1204.891357421875	970.6977539062501	-102.938781738281	1288.801635742188	911.7062988281251	-86.4242782592771	1303.392822265625	946.0639038085939	-15.3212156295774	1003.9248046875	1355.86669921875	391.9402160644533	962.5770263671873	1209.213500976562	485.6386718750002	977.427307128906	1145.420043945312	496.6372680664064	927.3195800781248	1155.914916992188	502.157440185547	924.6672363281248	938.296875	540.9780273437501	964.9244995117186	880.9151000976564	579.7042236328127	929.3060302734374	874.6693115234376	548.1062011718752	949.9478759765624	790.7389526367189	572.3452148437502	999.4848022460936	766.7273559570314	511.0945434570314	
